<?xml version="1.0" standalone="no"?><!DOCTYPE svg PUBLIC "-//W3C//DTD SVG 1.1//EN" "http://www.w3.org/Graphics/SVG/1.1/DTD/svg11.dtd"><svg t="1689676431194" class="icon" viewBox="0 0 1024 1024" version="1.1" xmlns="http://www.w3.org/2000/svg" p-id="2883" xmlns:xlink="http://www.w3.org/1999/xlink" width="200" height="200"><path d="M772.69 506.83c-11.81-47.38-39.83-95.68-83.32-143.56-44.54-49.06-69.61-106.47-74.5-170.6-3.71-48.35 6.05-82.71 6.16-83l9.36-31.7-31.7 9.39c-176.44 52.19-279.78 180.23-276.07 338.37-12.55-6.29-28.96-14.94-48.27-25.97l-22.97-13.15-3.74 26.2c-8.47 59.75-8.08 112.65 1.24 157.21 8.84 42.41 25.91 78.4 50.75 107.02 49.06 56.53 129.06 85.21 237.71 85.21 47.85 0 94.5-12.02 134.9-34.75 42.22-23.75 73.82-57.22 91.34-96.78 16.98-38.34 20.03-80.01 9.11-123.89z" fill="#FB6D51" p-id="2884"></path><path d="M286.68 425.72c-0.13-6.37-0.11-12.71 0.11-18.97-4-2.21-8.15-4.55-12.44-7l-22.97-13.15-2.68 18.94a996.579 996.579 0 0 0 37.98 20.18zM772.69 506.83c-11.81-47.38-39.83-95.68-83.32-143.56-44.54-49.06-69.61-106.47-74.5-170.6-3.71-48.35 6.05-82.71 6.16-83l9.36-31.7-31.7 9.39c-2.58 0.77-5.13 1.55-7.68 2.34l-5.92 19.97c-0.08 0.29-9.84 34.65-6.16 83 4.92 64.14 29.99 121.54 74.53 170.6 43.48 47.88 71.5 96.18 83.32 143.56 10.92 43.88 7.86 85.55-9.1 123.88-17.55 39.57-49.12 73.03-91.34 96.78-36.25 20.39-77.55 32.15-120.2 34.36 6.94 0.26 14.02 0.4 21.2 0.4 47.85 0 94.5-12.02 134.9-34.75 42.22-23.75 73.82-57.22 91.34-96.78 16.98-38.34 20.03-80.01 9.11-123.89z" fill="#E8563F" p-id="2885"></path><path d="M406.83 524.87c-7.18-6.84-18.55-6.55-25.39 0.66-6.84 7.18-6.55 18.54 0.66 25.38l113.65 108.05 24.75-26.02-113.67-108.07zM632.87 444.9c-5.74-8.1-16.94-10.02-25.05-4.29l-106.75 75.58 20.76 29.33 106.75-75.61c8.1-5.7 10.02-16.91 4.29-25.01z" fill="#646C77" p-id="2886"></path><path d="M564.34 904.1h-35.91V383.29c0-9.92-8.05-17.97-17.97-17.97-9.92 0-17.97 8.05-17.97 17.97V904.1h-35.91c-9.92 0-17.97 8.05-17.97 17.97 0 9.92 8.05 17.94 17.97 17.94H564.34c9.92 0 17.97-8.03 17.97-17.94-0.01-9.92-8.06-17.97-17.97-17.97z" fill="#434A54" p-id="2887"></path></svg>